<svg version="1.1" xmlns="http://www.w3.org/2000/svg" width="768" height="768" viewBox="0 0 768 768">
<path fill="#fff" d="M319.5 670.5v-63q-25.5 0-44.25-18.75t-18.75-44.25v-33l-154.5-153q-6 24-6 57 0 97.5 64.5 170.25t159 84.75zM606 384h64.5q1.5 10.5 1.5 31.5 0 133.5-93.75 227.25t-225.75 93.75q-133.5 0-227.25-93.75t-93.75-227.25q0-132 93.75-225.75t227.25-93.75q46.5 0 96 15v81q0 25.5-19.5 45t-45 19.5h-64.5v63q0 13.5-9 23.25t-22.5 9.75h-64.5v63h192q13.5 0 23.25 9.75t9.75 23.25v96h31.5q46.5 0 61.5 43.5 66-70.5 66-172.5 0-21-1.5-31.5zM678 127.5v-15q0-22.5-15.75-39t-38.25-16.5-38.25 16.5-15.75 39v15h108zM703.5 127.5q13.5 0 23.25 9.75t9.75 23.25v127.5q0 13.5-9.75 22.5t-23.25 9h-159q-13.5 0-23.25-9t-9.75-22.5v-127.5q0-13.5 9.75-23.25t23.25-9.75v-15q0-33 23.25-57t56.25-24 56.25 24 23.25 57v15z"></path>
</svg>
