<!-- Generated by IcoMoon.io -->
<svg version="1.1" xmlns="http://www.w3.org/2000/svg" width="768" height="768" viewBox="0 0 768 768">
<title></title>
<g id="icomoon-ignore">
</g>
<path fill="#fff" d="M544.5 352.5q7.5 0 15.75 0.75t15.75 2.25v-154.5l-240-105-240 105v157.5q0 54 18 105t50.25 93.75 76.5 72.75 95.25 42q13.5-3 26.25-7.5t24.75-10.5q-16.5-22.5-25.5-51t-9-58.5q0-54 25.5-97.5t69-69 97.5-25.5zM544.5 415.5q-36 0-65.25 17.25t-46.5 46.5-17.25 65.25q0 34.5 17.25 63.75t46.5 46.5 65.25 17.25q34.5 0 63.75-17.25t46.5-46.5 17.25-63.75q0-36-17.25-65.25t-46.5-46.5-63.75-17.25zM544.5 460.5q15 0 25.5 10.5t10.5 25.5q0 13.5-11.25 24.75t-24.75 11.25q-15 0-25.5-11.25t-10.5-24.75q0-15 10.5-25.5t25.5-10.5zM544.5 631.5q-22.5 0-41.25-9.75t-30.75-27.75q0-10.5 13.5-18.75t30-12 28.5-3.75q10.5 0 27.75 3.75t30 12 12.75 18.75q-12 18-30 27.75t-40.5 9.75z"></path>
</svg>
