<svg version="1.1" xmlns="http://www.w3.org/2000/svg" width="768" height="768" viewBox="0 0 768 768">
<path fill="#FFF" d="M247.5 319.5h-55.5q-52.5 0-90 38.25t-37.5 90.75 37.5 90 90 37.5h312zM96 168l40.5-40.5 535.5 535.5-40.5 40.5-64.5-63h-375q-79.5 0-135.75-56.25t-56.25-135.75q0-78 54-133.5t130.5-58.5zM619.5 321q61.5 4.5 105 50.25t43.5 108.75q0 82.5-67.5 130.5l-46.5-46.5q49.5-27 49.5-84 0-39-28.5-67.5t-67.5-28.5h-48v-16.5q0-73.5-51-124.5t-124.5-51q-42 0-81 19.5l-48-46.5q58.5-37.5 129-37.5 81 0 150.75 57t84.75 136.5z" />
</svg>
