<svg version="1.1" xmlns="http://www.w3.org/2000/svg" width="768" height="768" viewBox="0 0 768 768">
<path fill="#FFF" d="M384 640.5q105 0 180.75-75.75t75.75-180.75-75.75-180.75-180.75-75.75-180.75 75.75-75.75 180.75 75.75 180.75 180.75 75.75zM384 64.5q132 0 225.75 93.75t93.75 225.75-93.75 225.75-225.75 93.75-225.75-93.75-93.75-225.75 93.75-225.75 225.75-93.75zM384 223.5q66 0 113.25 47.25t47.25 113.25-47.25 113.25-113.25 47.25-113.25-47.25-47.25-113.25 47.25-113.25 113.25-47.25z"></path>
</svg>
