<svg version="1.1" xmlns="http://www.w3.org/2000/svg" width="768" height="768" viewBox="0 0 768 768">
<path fill="#FFF" d="M448.5 384v-64.5h-129v64.5h129zM448.5 511.5v-63h-129v63h129zM640.5 256.5v63h-67.5q3 21 3 33v31.5h64.5v64.5h-64.5v31.5q0 10.5-3 31.5h67.5v64.5h-90q-25.5 43.5-69.75 69.75t-96.75 26.25-96.75-26.25-69.75-69.75h-90v-64.5h67.5q-3-21-3-31.5v-31.5h-64.5v-64.5h64.5v-31.5q0-12 3-33h-67.5v-63h90q22.5-37.5 58.5-63l-52.5-52.5 45-45 70.5 69q22.5-4.5 45-4.5t45 4.5l70.5-69 45 45-52.5 52.5q37.5 25.5 58.5 63h90z"></path>
</svg>
