<svg version="1.1" xmlns="http://www.w3.org/2000/svg" width="768" height="768" viewBox="0 0 768 768">
<path fill="#fff" d="M384 519.212q55.887 0 95.549-39.662t39.662-95.549-39.662-95.549-95.549-39.662-95.549 39.662-39.662 95.549 39.662 95.549 95.549 39.662zM670.648 421.859l81.127 63.098q12.62 9.014 3.606 25.24l-77.521 133.409q-7.211 12.62-23.437 7.211l-95.549-37.859q-37.859 27.042-64.901 37.859l-14.423 100.958q-3.606 16.225-18.029 16.225h-155.042q-14.423 0-18.029-16.226l-14.423-100.957q-34.253-14.423-64.901-37.859l-95.549 37.859q-16.226 5.408-23.437-7.211l-77.522-133.409q-9.014-16.226 3.606-25.24l81.127-63.098q-1.803-12.62-1.803-37.859t1.803-37.859l-81.127-63.098q-12.62-9.014-3.606-25.24l77.522-133.408q7.211-12.62 23.437-7.211l95.549 37.859q37.859-27.042 64.901-37.859l14.423-100.958q3.606-16.226 18.029-16.226h155.042q14.423 0 18.029 16.226l14.423 100.958q34.253 14.422 64.901 37.859l95.549-37.859q16.226-5.408 23.437 7.211l77.521 133.408q9.014 16.226-3.606 25.24l-81.127 63.098q1.803 12.62 1.803 37.859t-1.803 37.859z" />
</svg>
