<svg version="1.1" xmlns="http://www.w3.org/2000/svg" width="768" height="768" viewBox="0 0 768 768">
<path fill="#fff" d="M448.5 271.5q19.5 0 33.75 14.25t14.25 33.75-14.25 33.75-33.75 14.25-33.75-14.25-14.25-33.75 14.25-33.75 33.75-14.25zM448.5 400.5q19.5 0 33.75 14.25t14.25 33.75-14.25 33.75-33.75 14.25-33.75-14.25-14.25-33.75 14.25-33.75 33.75-14.25zM319.5 544.5q13.5 0 23.25 9t9.75 22.5-9.75 22.5-23.25 9-22.5-9-9-22.5 9-22.5 22.5-9zM319.5 271.5q19.5 0 33.75 14.25t14.25 33.75-14.25 33.75-33.75 14.25-33.75-14.25-14.25-33.75 14.25-33.75 33.75-14.25zM448.5 655.5q15 0 15 16.5t-15 16.5q-16.5 0-16.5-16.5t16.5-16.5zM448.5 544.5q13.5 0 22.5 9t9 22.5-9 22.5-22.5 9-23.25-9-9.75-22.5 9.75-22.5 23.25-9zM672 432q16.5 0 16.5 16.5 0 15-16.5 15t-16.5-15q0-16.5 16.5-16.5zM576 160.5q13.5 0 22.5 9t9 22.5-9 22.5-22.5 9-22.5-9-9-22.5 9-22.5 22.5-9zM576 288q13.5 0 22.5 9t9 22.5-9 23.25-22.5 9.75-22.5-9.75-9-23.25 9-22.5 22.5-9zM576 544.5q13.5 0 22.5 9t9 22.5-9 22.5-22.5 9-22.5-9-9-22.5 9-22.5 22.5-9zM576 415.5q13.5 0 22.5 9.75t9 23.25-9 22.5-22.5 9-22.5-9-9-22.5 9-23.25 22.5-9.75zM319.5 400.5q19.5 0 33.75 14.25t14.25 33.75-14.25 33.75-33.75 14.25-33.75-14.25-14.25-33.75 14.25-33.75 33.75-14.25zM319.5 223.5q-13.5 0-22.5-9t-9-22.5 9-22.5 22.5-9 23.25 9 9.75 22.5-9.75 22.5-23.25 9zM319.5 112.5q-15 0-15-16.5t15-16.5q16.5 0 16.5 16.5t-16.5 16.5zM319.5 655.5q16.5 0 16.5 16.5t-16.5 16.5q-15 0-15-16.5t15-16.5zM96 432q16.5 0 16.5 16.5 0 15-16.5 15t-16.5-15q0-16.5 16.5-16.5zM448.5 112.5q-16.5 0-16.5-16.5t16.5-16.5q15 0 15 16.5t-15 16.5zM448.5 223.5q-13.5 0-23.25-9t-9.75-22.5 9.75-22.5 23.25-9 22.5 9 9 22.5-9 22.5-22.5 9zM672 336q-16.5 0-16.5-16.5 0-15 16.5-15t16.5 15q0 16.5-16.5 16.5zM192 160.5q13.5 0 22.5 9t9 22.5-9 22.5-22.5 9-22.5-9-9-22.5 9-22.5 22.5-9zM96 304.5q16.5 0 16.5 15 0 16.5-16.5 16.5t-16.5-16.5q0-15 16.5-15zM192 288q13.5 0 22.5 9t9 22.5-9 23.25-22.5 9.75-22.5-9.75-9-23.25 9-22.5 22.5-9zM192 544.5q13.5 0 22.5 9t9 22.5-9 22.5-22.5 9-22.5-9-9-22.5 9-22.5 22.5-9zM192 415.5q13.5 0 22.5 9.75t9 23.25-9 22.5-22.5 9-22.5-9-9-22.5 9-23.25 22.5-9.75z" />
</svg>
