<svg version="1.1" xmlns="http://www.w3.org/2000/svg" width="768" height="768" viewBox="0 0 768 768">
    <g fill="#fff">
        <path d="M230.4 544.665v-26.266c0-32.563 19.661-61.248 49.421-78.605-25.613-10.829-49.114-25.613-69.965-43.43-34.714 31.258-56.256 74.42-56.256 122.036v26.266c-44.582 15.936-76.8 58.137-76.8 108.134 0 63.514 51.686 115.2 115.2 115.2s115.2-51.686 115.2-115.2c0-49.997-32.217-92.199-76.8-108.134zM192 691.2c-21.197 0-38.4-17.241-38.4-38.4s17.203-38.4 38.4-38.4 38.4 17.241 38.4 38.4-17.203 38.4-38.4 38.4z"/>
        <path d="M537.6 223.296v13.478c0 37.824-20.544 71.117-51.648 90.624 25.536 10.522 49.114 24.807 70.003 42.24 35.942-33.715 58.445-80.716 58.445-132.826v-13.478c44.582-15.936 76.8-58.137 76.8-108.134 0-63.514-51.686-115.2-115.2-115.2s-115.2 51.686-115.2 115.2c0 49.997 32.217 92.199 76.8 108.096zM576 76.8c21.197 0 38.4 17.241 38.4 38.4s-17.204 38.4-38.4 38.4-38.4-17.241-38.4-38.4 17.204-38.4 38.4-38.4z"/>
        <path d="M611.904 543.898c-15.744-111.859-111.783-198.298-227.904-198.298-74.343 0-136.397-53.031-150.528-123.225 43.008-16.743 73.728-58.33 73.728-107.175 0-63.514-51.686-115.2-115.2-115.2s-115.2 51.686-115.2 115.2c0 50.918 33.408 93.696 79.296 108.903 15.744 111.859 111.783 198.298 227.904 198.298 74.343 0 136.397 53.031 150.528 123.225-43.008 16.743-73.728 58.33-73.728 107.175 0 63.514 51.686 115.2 115.2 115.2s115.2-51.686 115.2-115.2c0-50.918-33.408-93.696-79.296-108.903zM192 76.8c21.197 0 38.4 17.241 38.4 38.4s-17.203 38.4-38.4 38.4-38.4-17.241-38.4-38.4 17.203-38.4 38.4-38.4zM576 691.2c-21.197 0-38.4-17.241-38.4-38.4s17.204-38.4 38.4-38.4 38.4 17.241 38.4 38.4-17.204 38.4-38.4 38.4z"/>
    </g>
</svg>
