<?xml version="1.0" encoding="UTF-8" standalone="no"?>
<!-- Generated by IcoMoon.io -->

<svg
   version="1.1"
   width="768"
   height="768"
   viewBox="0 0 768 768"
   id="svg7"
   sodipodi:docname="routes.svg"
   inkscape:version="1.1.2 (0a00cf5339, 2022-02-04)"
   xmlns:inkscape="http://www.inkscape.org/namespaces/inkscape"
   xmlns:sodipodi="http://sodipodi.sourceforge.net/DTD/sodipodi-0.dtd"
   xmlns="http://www.w3.org/2000/svg"
   xmlns:svg="http://www.w3.org/2000/svg">
  <defs
     id="defs11" />
  <sodipodi:namedview
     id="namedview9"
     pagecolor="#505050"
     bordercolor="#eeeeee"
     borderopacity="1"
     inkscape:pageshadow="0"
     inkscape:pageopacity="0"
     inkscape:pagecheckerboard="0"
     showgrid="false"
     inkscape:zoom="0.77708089"
     inkscape:cx="295.97948"
     inkscape:cy="533.4065"
     inkscape:window-width="1850"
     inkscape:window-height="1016"
     inkscape:window-x="70"
     inkscape:window-y="27"
     inkscape:window-maximized="1"
     inkscape:current-layer="svg7" />
  <title
     id="title2" />
  <g
     id="icomoon-ignore" />
  <path
     d="M736.5 256.5q0 25.5-19.5 44.25t-45 18.75h-1.5q-10.5 0-15-1.5l-114 114q3 9 3 16.5 0 25.5-19.5 44.25t-45 18.75-45-18.75-19.5-44.25q0-7.5 3-16.5l-82.5-82.5q-9 3-16.5 3t-16.5-3l-145.5 145.5q3 9 3 16.5 0 25.5-19.5 45t-45 19.5-45-19.5-19.5-45 19.5-44.25 45-18.75q12 0 16.5 1.5l145.5-145.5q-1.5-4.5-1.5-16.5 0-25.5 18.75-45t44.25-19.5 45 19.5 19.5 45q0 12-1.5 16.5l81 81q4.5-1.5 16.5-1.5t16.5 1.5l114-112.5q-3-9-3-16.5 0-25.5 19.5-45t45-19.5 45 19.5 19.5 45z"
     id="path5"
     fill="#fff"
     style="stroke:#000000;stroke-opacity:1;stroke-width:1.40000007;stroke-miterlimit:4;stroke-dasharray:none" />
  <path
     d="m 478.65684,234.52773 30,-66 66,-30 -66,-30 -30,-65.999997 -30,65.999997 -66,30 66,30 z"
     id="path967"
     fill="#fff"
  />
  <path
     d="m 296.2455,667.52654 15,-64.5 64.5,-16.5 -64.5,-15 -15,-64.5 -16.5,64.5 -64.5,15 64.5,16.5 z"
     id="path1101"
     fill="#fff"
  />
</svg>
