<!-- Generated by IcoMoon.io -->
<svg version="1.1" xmlns="http://www.w3.org/2000/svg" width="768" height="768" viewBox="0 0 768 768">
<title></title>
<g id="icomoon-ignore">
</g>
<path fill="#fff" d="M511.5 640.5h46.5l-46.5-46.5v46.5zM448.5 640.5v-111l-18-18h-111v129h129zM256.5 448.5v-111l-18-18h-111v129h129zM256.5 640.5v-129h-129v129h129zM127.5 210v46.5h46.5zM319.5 402v46.5h46.5zM40.5 40.5l687 687-40.5 40.5-64.5-64.5h-495q-25.5 0-44.25-18.75t-18.75-44.25v-495l-64.5-64.5zM511.5 127.5v129h129v-129h-129zM256.5 127.5h-46.5l-64.5-63h495q25.5 0 44.25 18.75t18.75 44.25v495l-63-64.5v-46.5h-46.5l-64.5-63h111v-129h-129v111l-63-64.5v-46.5h-46.5l-64.5-63h111v-129h-129v111l-63-64.5v-46.5z"></path>
</svg>
