<svg version="1.1" xmlns="http://www.w3.org/2000/svg" width="768" height="768" viewBox="0 0 768 768">
<path fill="#fff" d="M544.5 511.5v-63h192v63q0 31.5-18 55.5t-46.5 34.5v135h-64.5v-135q-63-22.5-63-90zM415.5 64.5v127.5h64.5v192h-192v-192h64.5v-127.5q0-13.5 9-23.25t22.5-9.75 22.5 9.75 9 23.25zM672 192h64.5v192h-192v-192h63v-127.5q0-13.5 9.75-23.25t23.25-9.75 22.5 9.75 9 23.25v127.5zM31.5 511.5v-63h192v63q0 67.5-63 90v135h-64.5v-135q-28.5-10.5-46.5-34.5t-18-55.5zM288 511.5v-63h192v63q0 31.5-18 55.5t-46.5 34.5v135h-63v-135q-28.5-10.5-46.5-34.5t-18-55.5zM160.5 64.5v127.5h63v192h-192v-192h64.5v-127.5q0-13.5 9-23.25t22.5-9.75 23.25 9.75 9.75 23.25z"></path>
</svg>
