<!-- Generated by IcoMoon.io -->
<svg version="1.1" xmlns="http://www.w3.org/2000/svg" width="768" height="768" viewBox="0 0 768 768">
<title></title>
<g id="icomoon-ignore">
</g>
<path fill="#fff" d="M288 384q0-39 28.5-67.5t67.5-28.5 67.5 28.5 28.5 67.5-28.5 67.5-67.5 28.5-67.5-28.5-28.5-67.5zM672 160.5v192q0 114-61.5 213l-93-93q27-40.5 27-88.5 0-27-13.5-60.75t-33-53.25-53.25-33-60.75-13.5-60 13.5-52.5 33-33.75 53.25-14.25 60.75 14.25 60 33.75 52.5 52.5 33.75 60 14.25q48 0 88.5-27l99 100.5q-78 91.5-187.5 118.5-123-30-205.5-140.25t-82.5-243.75v-192l288-129z"></path>
</svg>
