<svg version="1.1" xmlns="http://www.w3.org/2000/svg" width="768" height="768" viewBox="0 0 768 768">
<path fill="#fff" d="M96 432q16.5 0 16.5 16.5 0 15-16.5 15t-16.5-15q0-16.5 16.5-16.5zM192 544.5q13.5 0 22.5 9t9 22.5-9 22.5-22.5 9-22.5-9-9-22.5 9-22.5 22.5-9zM319.5 655.5q16.5 0 16.5 16.5t-16.5 16.5q-15 0-15-16.5t15-16.5zM96 304.5q16.5 0 16.5 15 0 16.5-16.5 16.5t-16.5-16.5q0-15 16.5-15zM192 415.5q13.5 0 22.5 9.75t9 23.25-9 22.5-22.5 9-22.5-9-9-22.5 9-23.25 22.5-9.75zM672 432q16.5 0 16.5 16.5 0 15-16.5 15t-16.5-15q0-16.5 16.5-16.5zM319.5 544.5q13.5 0 23.25 9t9.75 22.5-9.75 22.5-23.25 9-22.5-9-9-22.5 9-22.5 22.5-9zM79.5 168l40.5-40.5 520.5 520.5-42 40.5-120-121.5q1.5 3 1.5 9 0 13.5-9 22.5t-22.5 9-23.25-9-9.75-22.5 9.75-22.5 23.25-9q6 0 9 1.5l-90-90q-3 16.5-16.5 28.5t-31.5 12q-19.5 0-33.75-14.25t-14.25-33.75q0-18 12-31.5t28.5-16.5l-90-90q1.5 3 1.5 9 0 13.5-9 23.25t-22.5 9.75-22.5-9.75-9-23.25 9-22.5 22.5-9l9 1.5zM448.5 655.5q15 0 15 16.5t-15 16.5q-16.5 0-16.5-16.5t16.5-16.5zM576 223.5q-13.5 0-22.5-9t-9-22.5 9-22.5 22.5-9 22.5 9 9 22.5-9 22.5-22.5 9zM576 352.5q-13.5 0-22.5-9.75t-9-23.25 9-22.5 22.5-9 22.5 9 9 22.5-9 23.25-22.5 9.75zM576 480q-13.5 0-22.5-9t-9-22.5 9-23.25 22.5-9.75 22.5 9.75 9 23.25-9 22.5-22.5 9zM319.5 223.5q-13.5 0-22.5-9t-9-22.5 9-22.5 22.5-9 23.25 9 9.75 22.5-9.75 22.5-23.25 9zM672 336q-16.5 0-16.5-16.5 0-15 16.5-15t16.5 15q0 16.5-16.5 16.5zM319.5 112.5q-15 0-15-16.5t15-16.5q16.5 0 16.5 16.5t-16.5 16.5zM448.5 112.5q-16.5 0-16.5-16.5t16.5-16.5q15 0 15 16.5t-15 16.5zM441 367.5q-15-1.5-27-13.5t-13.5-27v-7.5q0-19.5 14.25-33.75t33.75-14.25 33.75 14.25 14.25 33.75-14.25 33.75-33.75 14.25h-7.5zM448.5 223.5q-13.5 0-23.25-9t-9.75-22.5 9.75-22.5 23.25-9 22.5 9 9 22.5-9 22.5-22.5 9z" />
</svg>
