<?xml version="1.0" encoding="UTF-8" standalone="no"?>
<!-- Generated by IcoMoon.io -->

<svg
   version="1.1"
   width="768"
   height="768"
   viewBox="0 0 768 768"
   id="svg7"
   sodipodi:docname="routes-off.svg"
   inkscape:version="1.1.2 (0a00cf5339, 2022-02-04)"
   xmlns:inkscape="http://www.inkscape.org/namespaces/inkscape"
   xmlns:sodipodi="http://sodipodi.sourceforge.net/DTD/sodipodi-0.dtd"
   xmlns="http://www.w3.org/2000/svg"
   xmlns:svg="http://www.w3.org/2000/svg">
  <defs
     id="defs11" />
  <sodipodi:namedview
     id="namedview9"
     pagecolor="#505050"
     bordercolor="#eeeeee"
     borderopacity="1"
     inkscape:pageshadow="0"
     inkscape:pageopacity="0"
     inkscape:pagecheckerboard="0"
     showgrid="false"
     showguides="true"
     inkscape:guide-bbox="true"
     inkscape:zoom="0.77708089"
     inkscape:cx="395.06827"
     inkscape:cy="345.52387"
     inkscape:window-width="1850"
     inkscape:window-height="1016"
     inkscape:window-x="70"
     inkscape:window-y="27"
     inkscape:window-maximized="1"
     inkscape:current-layer="svg7" />
  <title
     id="title2" />
  <g
     id="icomoon-ignore" />
  <path
     d="M 502.16949,380.05203 610.5,273 c -2,-6 -3,-11.5 -3,-16.5 0,-17 6.5,-32 19.5,-45 13,-13 28,-19.5 45,-19.5 17,0 32,6.5 45,19.5 13,13 19.5,28 19.5,45 0,17 -6.5,31.75 -19.5,44.25 -13,12.5 -28,18.75 -45,18.75 h -1.5 c -7,0 -12,-0.5 -15,-1.5 L 547.85586,425.60148 Z m 27.42802,107.77887 c -1.38749,1.66414 -2.91621,3.30247 -4.59751,4.9191 -13,12.5 -28,18.75 -45,18.75 -17,0 -32,-6.25 -45,-18.75 -13,-12.5 -19.5,-27.25 -19.5,-44.25 0,-5 1,-10.5 3,-16.5 L 336,349.5 c -6,2 -11.5,3 -16.5,3 -5,0 -10.5,-1 -16.5,-3 L 157.5,495 c 2,6 3,11.5 3,16.5 0,17 -6.5,32 -19.5,45 -13,13 -28,19.5 -45,19.5 -17,0 -32,-6.5 -45,-19.5 -13,-13 -19.5,-28 -19.5,-45 0,-17 6.5,-31.75 19.5,-44.25 13,-12.5 28,-18.75 45,-18.75 8,0 13.5,0.5 16.5,1.5 L 258,304.5 c -1,-3 -1.5,-8.5 -1.5,-16.5 0,-17 6.25,-32 18.75,-45 1.44595,-1.50378 2.922,-2.92059 4.42816,-4.25043 z"
     id="path7216"
     fill="#fff"
  />
  <g
     id="g884"
     transform="translate(-712.92659,576.33344)">
    <g
       id="icomoon-ignore-3"/>
    <path
       d="m 1222.1921,-28.793835 -445.50002,-445.500005 -31.5,-31.5 39,-42 c 24,24 100,99.5 228.00002,226.5 128,127 225.5,224.500005 292.5,292.500005 l 151.5,149.999995 -42,42 z"
       id="path874"
       fill="#fff" />
  </g>
</svg>
