<!-- Generated by IcoMoon.io -->
<svg version="1.1" xmlns="http://www.w3.org/2000/svg" width="1536" height="1536" viewBox="0 0 1536 1536">
<title></title>
<g id="icomoon-ignore">
</g>
<path fill="#fff" d="M69.216 1223.073c-49.632 49.569-49.632 130.209 0 179.808 49.599 49.632 130.239 49.632 179.487 0l35.841-35.487 149.472 149.439c25.569 25.599 66.528 25.599 92.127 0l222.753-222.753c25.599-25.569 25.599-66.528 0-92.127l-149.439-149.439 266.208-266.559c57.024 29.406 121.95 46.044 190.464 46.044 229.761 0 416.001-186.207 416.001-416.001 0-229.761-186.24-416.001-416.001-416.001-229.824 0-416.031 186.24-416.031 416.001 0 68.511 16.641 133.44 46.047 190.401l-616.929 616.674zM896.127 416.001c0-88.32 71.679-159.999 159.999-159.999s159.999 71.679 159.999 159.999-71.679 159.999-159.999 159.999-159.999-71.679-159.999-159.999z"></path>
</svg>
