<!-- Generated by IcoMoon.io -->
<svg version="1.1" xmlns="http://www.w3.org/2000/svg" width="768" height="768" viewBox="0 0 768 768">
<title></title>
<g id="icomoon-ignore">
</g>
<path fill="#fff" d="M640.5 256.5v-129h-129v129h129zM640.5 448.5v-129h-129v129h129zM640.5 640.5v-129h-129v129h129zM448.5 256.5v-129h-129v129h129zM448.5 448.5v-129h-129v129h129zM448.5 640.5v-129h-129v129h129zM256.5 256.5v-129h-129v129h129zM256.5 448.5v-129h-129v129h129zM256.5 640.5v-129h-129v129h129zM640.5 64.5q25.5 0 44.25 18.75t18.75 44.25v513q0 25.5-18.75 44.25t-44.25 18.75h-513q-25.5 0-44.25-18.75t-18.75-44.25v-513q0-25.5 18.75-44.25t44.25-18.75h513z"></path>
</svg>
