<?xml version="1.0" encoding="UTF-8" standalone="no"?>
<svg
   width="64"
   height="64"
   viewBox="0 0 64 64"
   fill="transparent"
   version="1.1"
   id="svg22"
   xmlns="http://www.w3.org/2000/svg">
  <defs id="defs26">
    <style>
      .render {
        fill-opacity:1;
        stroke:none;
        stroke-linecap: round;
        stroke-linejoin: round;
        stroke-dasharray: none;
        shape-rendering: geometricprecision;
        stroke-opacity:1;
        paint-order:fill markers stroke;
      }
      .rect {
        fill: #232325;
      }
      .hole {
        fill: #797878;
      }
    </style>
  </defs>
  <g
     id="g2372">
    <path

       id="rect2"
       class="rect render"
       d="m 0,0 c 0,21.333333 0,42.666667 0,64 21.333333,0 42.666667,0 64,0 C 64,42.666667 64,21.333333 64,0 42.666667,0 21.333333,0 0,0 Z m 12.3125,25.4375 c 8.217063,-0.426677 8.789676,13.479425 0,13.125 -8.5849984,0.08267 -8.5854481,-13.186914 0,-13.125 z m 19.6875,0 c 8.217063,-0.426677 8.789676,13.479425 0,13.125 -8.584998,0.08267 -8.585448,-13.186914 0,-13.125 z m 19.6875,0 c 8.217063,-0.426677 8.789676,13.479425 0,13.125 -8.584998,0.08267 -8.585448,-13.186914 0,-13.125 z M 32,45.125 c 8.217063,-0.426677 8.789676,13.479425 0,13.125 -8.584998,0.08267 -8.585448,-13.186914 0,-13.125 z" />
    <path
       id="circle8"
       class="hole render"
       d="m 18.875,51.6875 c 0.409927,8.467246 -13.534927,8.467246 -13.125,0 0.1007002,-8.932497 13.201288,-8.320909 13.125,0 z" />
    <path
       id="circle10"
       class="hole render"
       d="m 58.25,51.6875 c 0.409927,8.467246 -13.534927,8.467246 -13.125,0 0.1007,-8.932497 13.201288,-8.320909 13.125,0 z" />
    <path
       id="circle16"
       class="hole render"
       d="m 18.875,12.3125 c 0.409927,8.467246 -13.534927,8.467246 -13.125,0 0.1007002,-8.9324975 13.201288,-8.3209085 13.125,0 z" />
    <path
       id="circle18"
       class="hole render"
       d="m 38.5625,12.3125 c 0.409927,8.467246 -13.534927,8.467246 -13.125,0 0.1007,-8.9324975 13.201288,-8.3209085 13.125,0 z" />
    <path
       id="circle20"
       class="hole render"
       d="m 58.25,12.3125 c 0.409927,8.467246 -13.534927,8.467246 -13.125,0 0.1007,-8.9324975 13.201288,-8.3209085 13.125,0 z" />
  </g>
</svg>
