<!-- Generated by IcoMoon.io -->
<svg version="1.1" xmlns="http://www.w3.org/2000/svg" width="512" height="448" viewBox="0 0 512 448">
<title></title>
<g id="icomoon-ignore">
</g>
<path fill="#fff" d="M288 224c0-70.5-57.5-128-128-128s-128 57.5-128 128 57.5 128 128 128 128-57.5 128-128zM480 224c0-70.5-57.5-128-128-128h-96.5c39 29.25 64.5 75.75 64.5 128s-25.5 98.75-64.5 128h96.5c70.5 0 128-57.5 128-128zM512 224c0 88.25-71.75 160-160 160h-192c-88.25 0-160-71.75-160-160s71.75-160 160-160h192c88.25 0 160 71.75 160 160z"></path>
</svg>
